<?xml version="1.0" encoding="UTF-8" standalone="no"?>
<!DOCTYPE svg PUBLIC "-//W3C//DTD SVG 1.1//EN"
 "http://www.w3.org/Graphics/SVG/1.1/DTD/svg11.dtd">
<!-- Generated by graphviz version 2.30.1 (20180828.1746)
 -->
<!-- Title: %3 Pages: 1 -->
<svg width="1089pt" height="548pt"
 viewBox="0.00 0.00 1089.00 548.00" xmlns="http://www.w3.org/2000/svg" xmlns:xlink="http://www.w3.org/1999/xlink">
<g id="graph0" class="graph" transform="scale(1 1) rotate(0) translate(4 544)">
<title>%3</title>
<polygon fill="white" stroke="white" points="-4,5 -4,-544 1086,-544 1086,5 -4,5"/>
<!-- [root] aws_eip.nat_test_1a -->
<g id="node1" class="node"><title>[root] aws_eip.nat_test_1a</title>
<polygon fill="none" stroke="black" points="289,-108 163,-108 163,-72 289,-72 289,-108"/>
<text text-anchor="middle" x="226" y="-86.3" font-family="Times,serif" font-size="14.00">aws_eip.nat_test_1a</text>
</g>
<!-- [root] provider.aws -->
<g id="node18" class="node"><title>[root] provider.aws</title>
<polygon fill="none" stroke="black" points="475,-36 395.55,-18 475,-3.55271e-15 554.45,-18 475,-36"/>
<text text-anchor="middle" x="475" y="-14.3" font-family="Times,serif" font-size="14.00">provider.aws</text>
</g>
<!-- [root] aws_eip.nat_test_1a&#45;&gt;[root] provider.aws -->
<g id="edge1" class="edge"><title>[root] aws_eip.nat_test_1a&#45;&gt;[root] provider.aws</title>
<path fill="none" stroke="black" d="M286.594,-71.9656C331.449,-59.3557 391.489,-42.4771 431.617,-31.1959"/>
<polygon fill="black" stroke="black" points="432.69,-34.5302 441.369,-28.4544 430.795,-27.7915 432.69,-34.5302"/>
</g>
<!-- [root] aws_eip.nat_test_1b -->
<g id="node2" class="node"><title>[root] aws_eip.nat_test_1b</title>
<polygon fill="none" stroke="black" points="786.25,-108 659.75,-108 659.75,-72 786.25,-72 786.25,-108"/>
<text text-anchor="middle" x="723" y="-86.3" font-family="Times,serif" font-size="14.00">aws_eip.nat_test_1b</text>
</g>
<!-- [root] aws_eip.nat_test_1b&#45;&gt;[root] provider.aws -->
<g id="edge2" class="edge"><title>[root] aws_eip.nat_test_1b&#45;&gt;[root] provider.aws</title>
<path fill="none" stroke="black" d="M662.649,-71.9656C617.974,-59.3557 558.176,-42.4771 518.208,-31.1959"/>
<polygon fill="black" stroke="black" points="519.07,-27.8026 508.496,-28.4544 517.169,-34.5393 519.07,-27.8026"/>
</g>
<!-- [root] aws_internet_gateway.test&#45;jaehoon&#45;gw -->
<g id="node3" class="node"><title>[root] aws_internet_gateway.test&#45;jaehoon&#45;gw</title>
<polygon fill="none" stroke="black" points="589,-180 361,-180 361,-144 589,-144 589,-180"/>
<text text-anchor="middle" x="475" y="-158.3" font-family="Times,serif" font-size="14.00">aws_internet_gateway.test&#45;jaehoon&#45;gw</text>
</g>
<!-- [root] aws_vpc.test&#45;jaehoon&#45;vpc -->
<g id="node17" class="node"><title>[root] aws_vpc.test&#45;jaehoon&#45;vpc</title>
<polygon fill="none" stroke="black" points="554,-108 396,-108 396,-72 554,-72 554,-108"/>
<text text-anchor="middle" x="475" y="-86.3" font-family="Times,serif" font-size="14.00">aws_vpc.test&#45;jaehoon&#45;vpc</text>
</g>
<!-- [root] aws_internet_gateway.test&#45;jaehoon&#45;gw&#45;&gt;[root] aws_vpc.test&#45;jaehoon&#45;vpc -->
<g id="edge3" class="edge"><title>[root] aws_internet_gateway.test&#45;jaehoon&#45;gw&#45;&gt;[root] aws_vpc.test&#45;jaehoon&#45;vpc</title>
<path fill="none" stroke="black" d="M475,-143.697C475,-135.983 475,-126.712 475,-118.112"/>
<polygon fill="black" stroke="black" points="478.5,-118.104 475,-108.104 471.5,-118.104 478.5,-118.104"/>
</g>
<!-- [root] aws_nat_gateway.test_1a -->
<g id="node4" class="node"><title>[root] aws_nat_gateway.test_1a</title>
<polygon fill="none" stroke="black" points="211.25,-252 56.75,-252 56.75,-216 211.25,-216 211.25,-252"/>
<text text-anchor="middle" x="134" y="-230.3" font-family="Times,serif" font-size="14.00">aws_nat_gateway.test_1a</text>
</g>
<!-- [root] aws_nat_gateway.test_1a&#45;&gt;[root] aws_eip.nat_test_1a -->
<g id="edge4" class="edge"><title>[root] aws_nat_gateway.test_1a&#45;&gt;[root] aws_eip.nat_test_1a</title>
<path fill="none" stroke="black" d="M135.365,-215.941C137.578,-196.984 143.307,-166.132 158,-144 165.718,-132.374 176.834,-122.186 187.849,-113.931"/>
<polygon fill="black" stroke="black" points="190.069,-116.648 196.195,-108.004 186.015,-110.941 190.069,-116.648"/>
</g>
<!-- [root] aws_subnet.public_1a -->
<g id="node15" class="node"><title>[root] aws_subnet.public_1a</title>
<polygon fill="none" stroke="black" points="304.25,-180 167.75,-180 167.75,-144 304.25,-144 304.25,-180"/>
<text text-anchor="middle" x="236" y="-158.3" font-family="Times,serif" font-size="14.00">aws_subnet.public_1a</text>
</g>
<!-- [root] aws_nat_gateway.test_1a&#45;&gt;[root] aws_subnet.public_1a -->
<g id="edge5" class="edge"><title>[root] aws_nat_gateway.test_1a&#45;&gt;[root] aws_subnet.public_1a</title>
<path fill="none" stroke="black" d="M158.952,-215.876C172.042,-206.893 188.26,-195.763 202.436,-186.034"/>
<polygon fill="black" stroke="black" points="204.687,-188.734 210.952,-180.19 200.726,-182.962 204.687,-188.734"/>
</g>
<!-- [root] aws_nat_gateway.test_1b -->
<g id="node5" class="node"><title>[root] aws_nat_gateway.test_1b</title>
<polygon fill="none" stroke="black" points="862.25,-252 707.75,-252 707.75,-216 862.25,-216 862.25,-252"/>
<text text-anchor="middle" x="785" y="-230.3" font-family="Times,serif" font-size="14.00">aws_nat_gateway.test_1b</text>
</g>
<!-- [root] aws_nat_gateway.test_1b&#45;&gt;[root] aws_eip.nat_test_1b -->
<g id="edge6" class="edge"><title>[root] aws_nat_gateway.test_1b&#45;&gt;[root] aws_eip.nat_test_1b</title>
<path fill="none" stroke="black" d="M779.817,-215.928C774.082,-197.756 764.16,-168.327 753,-144 748.856,-134.966 743.71,-125.421 738.857,-116.958"/>
<polygon fill="black" stroke="black" points="741.844,-115.132 733.768,-108.274 735.805,-118.671 741.844,-115.132"/>
</g>
<!-- [root] aws_subnet.public_1b -->
<g id="node16" class="node"><title>[root] aws_subnet.public_1b</title>
<polygon fill="none" stroke="black" points="744.25,-180 607.75,-180 607.75,-144 744.25,-144 744.25,-180"/>
<text text-anchor="middle" x="676" y="-158.3" font-family="Times,serif" font-size="14.00">aws_subnet.public_1b</text>
</g>
<!-- [root] aws_nat_gateway.test_1b&#45;&gt;[root] aws_subnet.public_1b -->
<g id="edge7" class="edge"><title>[root] aws_nat_gateway.test_1b&#45;&gt;[root] aws_subnet.public_1b</title>
<path fill="none" stroke="black" d="M758.336,-215.876C744.216,-206.808 726.689,-195.552 711.439,-185.759"/>
<polygon fill="black" stroke="black" points="713.073,-182.648 702.767,-180.19 709.29,-188.538 713.073,-182.648"/>
</g>
<!-- [root] aws_route_table.test_private_1a -->
<g id="node6" class="node"><title>[root] aws_route_table.test_private_1a</title>
<polygon fill="none" stroke="black" points="226.25,-324 35.75,-324 35.75,-288 226.25,-288 226.25,-324"/>
<text text-anchor="middle" x="131" y="-302.3" font-family="Times,serif" font-size="14.00">aws_route_table.test_private_1a</text>
</g>
<!-- [root] aws_route_table.test_private_1a&#45;&gt;[root] aws_nat_gateway.test_1a -->
<g id="edge8" class="edge"><title>[root] aws_route_table.test_private_1a&#45;&gt;[root] aws_nat_gateway.test_1a</title>
<path fill="none" stroke="black" d="M131.742,-287.697C132.072,-279.983 132.469,-270.712 132.838,-262.112"/>
<polygon fill="black" stroke="black" points="136.335,-262.245 133.267,-252.104 129.342,-261.945 136.335,-262.245"/>
</g>
<!-- [root] aws_route_table.test_private_1b -->
<g id="node7" class="node"><title>[root] aws_route_table.test_private_1b</title>
<polygon fill="none" stroke="black" points="910,-324 718,-324 718,-288 910,-288 910,-324"/>
<text text-anchor="middle" x="814" y="-302.3" font-family="Times,serif" font-size="14.00">aws_route_table.test_private_1b</text>
</g>
<!-- [root] aws_route_table.test_private_1b&#45;&gt;[root] aws_nat_gateway.test_1b -->
<g id="edge9" class="edge"><title>[root] aws_route_table.test_private_1b&#45;&gt;[root] aws_nat_gateway.test_1b</title>
<path fill="none" stroke="black" d="M806.831,-287.697C803.565,-279.813 799.626,-270.304 795.998,-261.546"/>
<polygon fill="black" stroke="black" points="799.147,-260.003 792.086,-252.104 792.68,-262.683 799.147,-260.003"/>
</g>
<!-- [root] aws_route_table.test_public -->
<g id="node8" class="node"><title>[root] aws_route_table.test_public</title>
<polygon fill="none" stroke="black" points="594,-324 426,-324 426,-288 594,-288 594,-324"/>
<text text-anchor="middle" x="510" y="-302.3" font-family="Times,serif" font-size="14.00">aws_route_table.test_public</text>
</g>
<!-- [root] aws_route_table.test_public&#45;&gt;[root] aws_internet_gateway.test&#45;jaehoon&#45;gw -->
<g id="edge10" class="edge"><title>[root] aws_route_table.test_public&#45;&gt;[root] aws_internet_gateway.test&#45;jaehoon&#45;gw</title>
<path fill="none" stroke="black" d="M505.778,-287.871C499.787,-263.564 488.758,-218.819 481.658,-190.013"/>
<polygon fill="black" stroke="black" points="485.028,-189.061 479.237,-180.189 478.232,-190.736 485.028,-189.061"/>
</g>
<!-- [root] aws_route_table_association.test_private_1a -->
<g id="node9" class="node"><title>[root] aws_route_table_association.test_private_1a</title>
<polygon fill="none" stroke="black" points="258,-396 0,-396 0,-360 258,-360 258,-396"/>
<text text-anchor="middle" x="129" y="-374.3" font-family="Times,serif" font-size="14.00">aws_route_table_association.test_private_1a</text>
</g>
<!-- [root] aws_route_table_association.test_private_1a&#45;&gt;[root] aws_route_table.test_private_1a -->
<g id="edge11" class="edge"><title>[root] aws_route_table_association.test_private_1a&#45;&gt;[root] aws_route_table.test_private_1a</title>
<path fill="none" stroke="black" d="M129.494,-359.697C129.715,-351.983 129.98,-342.712 130.225,-334.112"/>
<polygon fill="black" stroke="black" points="133.724,-334.2 130.511,-324.104 126.727,-334 133.724,-334.2"/>
</g>
<!-- [root] aws_subnet.private_1a -->
<g id="node13" class="node"><title>[root] aws_subnet.private_1a</title>
<polygon fill="none" stroke="black" points="370,-252 230,-252 230,-216 370,-216 370,-252"/>
<text text-anchor="middle" x="300" y="-230.3" font-family="Times,serif" font-size="14.00">aws_subnet.private_1a</text>
</g>
<!-- [root] aws_route_table_association.test_private_1a&#45;&gt;[root] aws_subnet.private_1a -->
<g id="edge12" class="edge"><title>[root] aws_route_table_association.test_private_1a&#45;&gt;[root] aws_subnet.private_1a</title>
<path fill="none" stroke="black" d="M174.654,-359.914C194.511,-351.096 217.245,-339.01 235,-324 255.97,-306.272 273.856,-280.45 285.526,-261.18"/>
<polygon fill="black" stroke="black" points="288.689,-262.706 290.742,-252.311 282.655,-259.157 288.689,-262.706"/>
</g>
<!-- [root] aws_route_table_association.test_private_1b -->
<g id="node10" class="node"><title>[root] aws_route_table_association.test_private_1b</title>
<polygon fill="none" stroke="black" points="1080.25,-396 821.75,-396 821.75,-360 1080.25,-360 1080.25,-396"/>
<text text-anchor="middle" x="951" y="-374.3" font-family="Times,serif" font-size="14.00">aws_route_table_association.test_private_1b</text>
</g>
<!-- [root] aws_route_table_association.test_private_1b&#45;&gt;[root] aws_route_table.test_private_1b -->
<g id="edge13" class="edge"><title>[root] aws_route_table_association.test_private_1b&#45;&gt;[root] aws_route_table.test_private_1b</title>
<path fill="none" stroke="black" d="M917.486,-359.876C899.159,-350.512 876.264,-338.814 856.672,-328.803"/>
<polygon fill="black" stroke="black" points="858.14,-325.623 847.643,-324.19 854.955,-331.857 858.14,-325.623"/>
</g>
<!-- [root] aws_subnet.private_1b -->
<g id="node14" class="node"><title>[root] aws_subnet.private_1b</title>
<polygon fill="none" stroke="black" points="1021.25,-252 880.75,-252 880.75,-216 1021.25,-216 1021.25,-252"/>
<text text-anchor="middle" x="951" y="-230.3" font-family="Times,serif" font-size="14.00">aws_subnet.private_1b</text>
</g>
<!-- [root] aws_route_table_association.test_private_1b&#45;&gt;[root] aws_subnet.private_1b -->
<g id="edge14" class="edge"><title>[root] aws_route_table_association.test_private_1b&#45;&gt;[root] aws_subnet.private_1b</title>
<path fill="none" stroke="black" d="M951,-359.871C951,-335.67 951,-291.211 951,-262.393"/>
<polygon fill="black" stroke="black" points="954.5,-262.189 951,-252.189 947.5,-262.189 954.5,-262.189"/>
</g>
<!-- [root] aws_route_table_association.test_public_1a -->
<g id="node11" class="node"><title>[root] aws_route_table_association.test_public_1a</title>
<polygon fill="none" stroke="black" points="530,-396 276,-396 276,-360 530,-360 530,-396"/>
<text text-anchor="middle" x="403" y="-374.3" font-family="Times,serif" font-size="14.00">aws_route_table_association.test_public_1a</text>
</g>
<!-- [root] aws_route_table_association.test_public_1a&#45;&gt;[root] aws_route_table.test_public -->
<g id="edge15" class="edge"><title>[root] aws_route_table_association.test_public_1a&#45;&gt;[root] aws_route_table.test_public</title>
<path fill="none" stroke="black" d="M429.175,-359.876C443.036,-350.808 460.241,-339.552 475.211,-329.759"/>
<polygon fill="black" stroke="black" points="477.272,-332.593 483.724,-324.19 473.44,-326.735 477.272,-332.593"/>
</g>
<!-- [root] aws_route_table_association.test_public_1a&#45;&gt;[root] aws_subnet.public_1a -->
<g id="edge16" class="edge"><title>[root] aws_route_table_association.test_public_1a&#45;&gt;[root] aws_subnet.public_1a</title>
<path fill="none" stroke="black" d="M405.662,-359.742C409.6,-327.625 413.199,-258.125 379,-216 362.866,-196.127 338.523,-183.705 314.473,-175.941"/>
<polygon fill="black" stroke="black" points="315.154,-172.492 304.571,-172.99 313.154,-179.2 315.154,-172.492"/>
</g>
<!-- [root] aws_route_table_association.test_public_1b -->
<g id="node12" class="node"><title>[root] aws_route_table_association.test_public_1b</title>
<polygon fill="none" stroke="black" points="803.25,-396 548.75,-396 548.75,-360 803.25,-360 803.25,-396"/>
<text text-anchor="middle" x="676" y="-374.3" font-family="Times,serif" font-size="14.00">aws_route_table_association.test_public_1b</text>
</g>
<!-- [root] aws_route_table_association.test_public_1b&#45;&gt;[root] aws_route_table.test_public -->
<g id="edge17" class="edge"><title>[root] aws_route_table_association.test_public_1b&#45;&gt;[root] aws_route_table.test_public</title>
<path fill="none" stroke="black" d="M635.392,-359.876C612.598,-350.264 583.973,-338.193 559.83,-328.013"/>
<polygon fill="black" stroke="black" points="561.051,-324.729 550.476,-324.068 558.331,-331.179 561.051,-324.729"/>
</g>
<!-- [root] aws_route_table_association.test_public_1b&#45;&gt;[root] aws_subnet.public_1b -->
<g id="edge18" class="edge"><title>[root] aws_route_table_association.test_public_1b&#45;&gt;[root] aws_subnet.public_1b</title>
<path fill="none" stroke="black" d="M676,-359.849C676,-322.832 676,-235.181 676,-190.386"/>
<polygon fill="black" stroke="black" points="679.5,-190.232 676,-180.232 672.5,-190.232 679.5,-190.232"/>
</g>
<!-- [root] aws_subnet.private_1a&#45;&gt;[root] aws_vpc.test&#45;jaehoon&#45;vpc -->
<g id="edge19" class="edge"><title>[root] aws_subnet.private_1a&#45;&gt;[root] aws_vpc.test&#45;jaehoon&#45;vpc</title>
<path fill="none" stroke="black" d="M306.228,-215.743C314.127,-196.027 329.486,-163.924 352,-144 367.418,-130.356 386.884,-119.81 405.754,-111.851"/>
<polygon fill="black" stroke="black" points="407.272,-115.014 415.245,-108.036 404.661,-108.519 407.272,-115.014"/>
</g>
<!-- [root] aws_subnet.private_1b&#45;&gt;[root] aws_vpc.test&#45;jaehoon&#45;vpc -->
<g id="edge20" class="edge"><title>[root] aws_subnet.private_1b&#45;&gt;[root] aws_vpc.test&#45;jaehoon&#45;vpc</title>
<path fill="none" stroke="black" d="M919.327,-215.962C880.973,-195.997 813.925,-163.208 753,-144 691.241,-124.529 619.388,-111.059 564.205,-102.571"/>
<polygon fill="black" stroke="black" points="564.512,-99.0781 554.101,-101.044 563.466,-106 564.512,-99.0781"/>
</g>
<!-- [root] aws_subnet.public_1a&#45;&gt;[root] aws_vpc.test&#45;jaehoon&#45;vpc -->
<g id="edge21" class="edge"><title>[root] aws_subnet.public_1a&#45;&gt;[root] aws_vpc.test&#45;jaehoon&#45;vpc</title>
<path fill="none" stroke="black" d="M294.16,-143.966C328.135,-134.015 371.185,-121.406 406.757,-110.987"/>
<polygon fill="black" stroke="black" points="407.966,-114.281 416.579,-108.111 405.998,-107.563 407.966,-114.281"/>
</g>
<!-- [root] aws_subnet.public_1b&#45;&gt;[root] aws_vpc.test&#45;jaehoon&#45;vpc -->
<g id="edge22" class="edge"><title>[root] aws_subnet.public_1b&#45;&gt;[root] aws_vpc.test&#45;jaehoon&#45;vpc</title>
<path fill="none" stroke="black" d="M627.087,-143.966C599.003,-134.185 563.545,-121.836 533.932,-111.524"/>
<polygon fill="black" stroke="black" points="534.727,-108.094 524.132,-108.111 532.425,-114.705 534.727,-108.094"/>
</g>
<!-- [root] aws_vpc.test&#45;jaehoon&#45;vpc&#45;&gt;[root] provider.aws -->
<g id="edge23" class="edge"><title>[root] aws_vpc.test&#45;jaehoon&#45;vpc&#45;&gt;[root] provider.aws</title>
<path fill="none" stroke="black" d="M475,-71.6966C475,-63.9827 475,-54.7125 475,-46.1124"/>
<polygon fill="black" stroke="black" points="478.5,-46.1043 475,-36.1043 471.5,-46.1044 478.5,-46.1043"/>
</g>
<!-- [root] meta.count&#45;boundary (EachMode fixup) -->
<g id="node19" class="node"><title>[root] meta.count&#45;boundary (EachMode fixup)</title>
<ellipse fill="none" stroke="black" cx="389" cy="-450" rx="176.177" ry="18"/>
<text text-anchor="middle" x="389" y="-446.3" font-family="Times,serif" font-size="14.00">[root] meta.count&#45;boundary (EachMode fixup)</text>
</g>
<!-- [root] meta.count&#45;boundary (EachMode fixup)&#45;&gt;[root] aws_route_table_association.test_private_1a -->
<g id="edge24" class="edge"><title>[root] meta.count&#45;boundary (EachMode fixup)&#45;&gt;[root] aws_route_table_association.test_private_1a</title>
<path fill="none" stroke="black" d="M329.677,-433.028C291.739,-422.814 242.263,-409.494 201.931,-398.635"/>
<polygon fill="black" stroke="black" points="202.719,-395.223 192.153,-396.003 200.899,-401.982 202.719,-395.223"/>
</g>
<!-- [root] meta.count&#45;boundary (EachMode fixup)&#45;&gt;[root] aws_route_table_association.test_private_1b -->
<g id="edge25" class="edge"><title>[root] meta.count&#45;boundary (EachMode fixup)&#45;&gt;[root] aws_route_table_association.test_private_1b</title>
<path fill="none" stroke="black" d="M496.031,-435.669C585.63,-424.509 714.134,-408.503 811.734,-396.346"/>
<polygon fill="black" stroke="black" points="812.187,-399.817 821.677,-395.108 811.321,-392.871 812.187,-399.817"/>
</g>
<!-- [root] meta.count&#45;boundary (EachMode fixup)&#45;&gt;[root] aws_route_table_association.test_public_1a -->
<g id="edge26" class="edge"><title>[root] meta.count&#45;boundary (EachMode fixup)&#45;&gt;[root] aws_route_table_association.test_public_1a</title>
<path fill="none" stroke="black" d="M392.461,-431.697C394.003,-423.983 395.858,-414.712 397.578,-406.112"/>
<polygon fill="black" stroke="black" points="401.05,-406.597 399.579,-396.104 394.186,-405.224 401.05,-406.597"/>
</g>
<!-- [root] meta.count&#45;boundary (EachMode fixup)&#45;&gt;[root] aws_route_table_association.test_public_1b -->
<g id="edge27" class="edge"><title>[root] meta.count&#45;boundary (EachMode fixup)&#45;&gt;[root] aws_route_table_association.test_public_1b</title>
<path fill="none" stroke="black" d="M453.766,-433.203C496.046,-422.891 551.534,-409.358 596.486,-398.394"/>
<polygon fill="black" stroke="black" points="597.316,-401.794 606.202,-396.024 595.658,-394.993 597.316,-401.794"/>
</g>
<!-- [root] provider.aws (close) -->
<g id="node20" class="node"><title>[root] provider.aws (close)</title>
<ellipse fill="none" stroke="black" cx="689" cy="-450" rx="104.937" ry="18"/>
<text text-anchor="middle" x="689" y="-446.3" font-family="Times,serif" font-size="14.00">[root] provider.aws (close)</text>
</g>
<!-- [root] provider.aws (close)&#45;&gt;[root] aws_route_table_association.test_private_1a -->
<g id="edge28" class="edge"><title>[root] provider.aws (close)&#45;&gt;[root] aws_route_table_association.test_private_1a</title>
<path fill="none" stroke="black" d="M613.268,-437.475C600.182,-435.578 586.705,-433.684 574,-432 441.003,-414.376 405.066,-412.48 268.304,-396.15"/>
<polygon fill="black" stroke="black" points="268.626,-392.664 258.281,-394.949 267.793,-399.614 268.626,-392.664"/>
</g>
<!-- [root] provider.aws (close)&#45;&gt;[root] aws_route_table_association.test_private_1b -->
<g id="edge29" class="edge"><title>[root] provider.aws (close)&#45;&gt;[root] aws_route_table_association.test_private_1b</title>
<path fill="none" stroke="black" d="M743.287,-434.496C782.083,-424.131 834.739,-410.062 877.326,-398.684"/>
<polygon fill="black" stroke="black" points="878.325,-402.04 887.083,-396.077 876.518,-395.277 878.325,-402.04"/>
</g>
<!-- [root] provider.aws (close)&#45;&gt;[root] aws_route_table_association.test_public_1a -->
<g id="edge30" class="edge"><title>[root] provider.aws (close)&#45;&gt;[root] aws_route_table_association.test_public_1a</title>
<path fill="none" stroke="black" d="M631.468,-434.919C588.675,-424.445 529.754,-410.024 482.467,-398.45"/>
<polygon fill="black" stroke="black" points="483.108,-395.004 472.563,-396.026 481.444,-401.803 483.108,-395.004"/>
</g>
<!-- [root] provider.aws (close)&#45;&gt;[root] aws_route_table_association.test_public_1b -->
<g id="edge31" class="edge"><title>[root] provider.aws (close)&#45;&gt;[root] aws_route_table_association.test_public_1b</title>
<path fill="none" stroke="black" d="M685.787,-431.697C684.354,-423.983 682.632,-414.712 681.035,-406.112"/>
<polygon fill="black" stroke="black" points="684.444,-405.297 679.177,-396.104 677.561,-406.575 684.444,-405.297"/>
</g>
<!-- [root] root -->
<g id="node21" class="node"><title>[root] root</title>
<ellipse fill="none" stroke="black" cx="539" cy="-522" rx="47.169" ry="18"/>
<text text-anchor="middle" x="539" y="-518.3" font-family="Times,serif" font-size="14.00">[root] root</text>
</g>
<!-- [root] root&#45;&gt;[root] meta.count&#45;boundary (EachMode fixup) -->
<g id="edge32" class="edge"><title>[root] root&#45;&gt;[root] meta.count&#45;boundary (EachMode fixup)</title>
<path fill="none" stroke="black" d="M510.078,-507.503C488.489,-497.428 458.581,-483.471 433.893,-471.95"/>
<polygon fill="black" stroke="black" points="435.256,-468.724 424.714,-467.667 432.296,-475.067 435.256,-468.724"/>
</g>
<!-- [root] root&#45;&gt;[root] provider.aws (close) -->
<g id="edge33" class="edge"><title>[root] root&#45;&gt;[root] provider.aws (close)</title>
<path fill="none" stroke="black" d="M567.922,-507.503C589.889,-497.252 620.467,-482.982 645.397,-471.348"/>
<polygon fill="black" stroke="black" points="647.064,-474.433 654.646,-467.032 644.104,-468.089 647.064,-474.433"/>
</g>
</g>
</svg>
